<svg width="262" height="117" viewBox="0 0 262 117" fill="none" xmlns="http://www.w3.org/2000/svg">
<path d="M133.684 30.0039C133.684 28.7148 133.352 27.8229 132.688 27.3281C132.023 26.8203 131.047 26.5664 129.758 26.5664C127.557 26.5664 125.513 27.1068 123.625 28.1875C121.75 29.2552 120.812 30.4336 120.812 31.7227C120.812 32.543 121.164 33.2461 121.867 33.832C122.583 34.4049 124.419 35.1211 127.375 35.9805C130.474 36.8789 132.772 37.8685 134.27 38.9492C135.78 40.0169 136.535 41.306 136.535 42.8164C136.535 45.3294 134.621 47.6341 130.793 49.7305C126.965 51.8138 122.987 52.8555 118.859 52.8555C117.518 52.8555 116.444 52.5755 115.637 52.0156C114.829 51.4557 114.426 50.7656 114.426 49.9453C114.426 49.2943 114.608 48.6888 114.973 48.1289C115.337 47.569 115.773 47.2891 116.281 47.2891C116.594 47.2891 116.88 47.3411 117.141 47.4453C118.508 48.0312 119.784 48.3242 120.969 48.3242C123 48.3242 125.279 47.7578 127.805 46.625C130.344 45.4792 131.613 44.3594 131.613 43.2656C131.613 42.8099 131.294 42.3737 130.656 41.957C130.031 41.5273 128.749 40.9935 126.809 40.3555C123.983 39.431 121.854 38.6693 120.422 38.0703C119.003 37.4714 117.922 36.6901 117.18 35.7266C116.451 34.75 116.086 33.5781 116.086 32.2109C116.086 29.776 117.505 27.5104 120.344 25.4141C123.182 23.3177 126.516 22.2695 130.344 22.2695C132.544 22.2695 134.276 22.7057 135.539 23.5781C136.815 24.4505 137.453 25.4466 137.453 26.5664C137.453 28.8581 136.197 30.0039 133.684 30.0039ZM154.426 43.8516C153.176 46.1302 151.724 47.9401 150.07 49.2812C148.43 50.6224 146.763 51.293 145.07 51.293C144.068 51.293 143.052 50.7656 142.023 49.7109C141.008 48.6562 140.5 47.0352 140.5 44.8477C140.5 43.2982 140.891 40.9609 141.672 37.8359C142.349 35.2578 142.688 33.2982 142.688 31.957C143.208 30.8633 144.022 30.3164 145.129 30.3164C145.884 30.3164 146.483 30.5703 146.926 31.0781C147.382 31.5729 147.609 32.0742 147.609 32.582C147.609 33.5065 147.284 34.8216 146.633 36.5273C146.255 37.543 145.845 38.9818 145.402 40.8438C144.973 42.6927 144.758 43.8776 144.758 44.3984C144.758 46.1302 145.116 46.9961 145.832 46.9961C146.965 46.9961 148.495 45.9089 150.422 43.7344C152.349 41.5599 153.605 39.3333 154.191 37.0547C154.777 34.8281 155.298 33.3698 155.754 32.6797C156.21 31.9896 156.854 31.6445 157.688 31.6445C159.042 31.6445 159.719 32.3997 159.719 33.9102C159.719 34.1315 159.608 34.5742 159.387 35.2383C158.618 37.543 158.234 40.1406 158.234 43.0312C158.234 46.4167 158.807 48.4414 159.953 49.1055C160.331 49.3268 160.52 49.6003 160.52 49.9258C160.52 50.3945 160.188 50.8372 159.523 51.2539C158.859 51.6706 158.228 51.8789 157.629 51.8789C156.6 51.8789 155.806 51.1562 155.246 49.7109C154.699 48.2526 154.426 46.2995 154.426 43.8516ZM169.543 49.6133C169.322 50.5247 169.1 51.9049 168.879 53.7539L167.941 61.4297C167.785 62.6797 167.479 63.5456 167.023 64.0273C166.581 64.5091 166.034 64.75 165.383 64.75C164.797 64.75 164.237 64.5286 163.703 64.0859C163.182 63.6562 162.922 63.1745 162.922 62.6406C162.922 61.5859 163.085 60.3685 163.41 58.9883C165.35 51.2409 166.411 43.2005 166.594 34.8672V34.4766C166.594 32.7318 166.639 31.5729 166.73 31C166.835 30.4141 167.115 29.8997 167.57 29.457C168.039 29.0143 168.697 28.793 169.543 28.793C170.962 28.793 171.672 29.8802 171.672 32.0547C171.672 32.9401 171.509 34.444 171.184 36.5664L170.988 37.9141C172.473 35.4401 174.237 33.3893 176.281 31.7617C178.326 30.1211 180.155 29.3008 181.77 29.3008C183.228 29.3008 184.465 29.8216 185.48 30.8633C186.509 31.9049 187.023 33.2135 187.023 34.7891C187.023 38.9948 185.389 42.8229 182.121 46.2734C178.866 49.7109 175.643 51.4297 172.453 51.4297C170.943 51.4297 169.973 50.8242 169.543 49.6133ZM181.008 33.7344C179.419 33.7344 177.355 35.2839 174.816 38.3828C172.29 41.4818 171.027 43.9167 171.027 45.6875C171.027 46.1432 171.249 46.5534 171.691 46.918C172.147 47.2695 172.674 47.4453 173.273 47.4453C174.927 47.4453 176.822 46.1497 178.957 43.5586C181.105 40.9544 182.18 38.4414 182.18 36.0195C182.18 35.2122 182.056 34.6328 181.809 34.2812C181.561 33.9167 181.294 33.7344 181.008 33.7344ZM208.273 44.2812C208.273 45.6354 207.134 47.2565 204.855 49.1445C202.577 51.0195 200.005 51.957 197.141 51.957C194.94 51.957 193.208 51.2669 191.945 49.8867C190.682 48.4935 190.051 46.5599 190.051 44.0859C190.051 40.4401 191.34 37.0221 193.918 33.832C196.496 30.6419 199.25 29.0469 202.18 29.0469C203.638 29.0469 204.81 29.5091 205.695 30.4336C206.581 31.3581 207.023 32.4583 207.023 33.7344C207.023 36 205.936 38.1615 203.762 40.2188C201.587 42.263 198.801 43.6758 195.402 44.457C195.012 44.5482 194.816 44.7826 194.816 45.1602C194.816 45.7852 195.09 46.3841 195.637 46.957C196.197 47.5169 196.939 47.7969 197.863 47.7969C200.48 47.7969 203.078 46.4492 205.656 43.7539C206.151 43.2331 206.633 42.9727 207.102 42.9727C207.883 42.9727 208.273 43.4089 208.273 44.2812ZM195.168 40.8242C197.225 40.4076 199.035 39.5286 200.598 38.1875C202.173 36.8464 202.961 35.6289 202.961 34.5352C202.961 34.1055 202.837 33.7474 202.59 33.4609C202.355 33.1615 202.049 33.0117 201.672 33.0117C200.539 33.0117 199.283 33.8451 197.902 35.5117C196.522 37.1784 195.611 38.9492 195.168 40.8242ZM216.418 41.3125L216.75 40.6875C218.326 37.5234 220.018 34.9583 221.828 32.9922C223.651 31.013 225.428 30.0234 227.16 30.0234C228.488 30.0234 229.569 30.388 230.402 31.1172C231.249 31.8464 231.672 32.7122 231.672 33.7148C231.672 34.3398 231.529 34.8802 231.242 35.3359C230.956 35.7786 230.559 36 230.051 36C229.243 36 228.508 35.668 227.844 35.0039C227.375 34.5742 227.004 34.3594 226.73 34.3594C225.754 34.3594 224.12 35.8763 221.828 38.9102C219.536 41.944 218.156 45.3555 217.688 49.1445C217.544 50.2383 217.225 51 216.73 51.4297C216.236 51.8724 215.565 52.0938 214.719 52.0938C213.82 52.0938 213.182 51.5859 212.805 50.5703C212.427 49.5417 212.238 47.8685 212.238 45.5508C212.238 44.6003 212.264 43.3177 212.316 41.7031C212.368 40.1797 212.518 38.3177 212.766 36.1172C212.831 35.5443 212.876 35.0951 212.902 34.7695C213.02 33.4935 213.15 32.6211 213.293 32.1523C213.449 31.6706 213.801 31.2214 214.348 30.8047C214.895 30.388 215.5 30.1797 216.164 30.1797C216.867 30.1797 217.401 30.3815 217.766 30.7852C218.13 31.1888 218.312 31.6315 218.312 32.1133C218.312 32.7253 218.02 33.9948 217.434 35.9219C217.225 36.5859 217.049 37.3802 216.906 38.3047L216.418 41.3125Z" fill="white"/>
<path d="M121.945 99.1523C121.62 102.173 121.457 104.595 121.457 106.418C121.457 107.134 121.242 107.772 120.812 108.332C120.383 108.892 119.797 109.172 119.055 109.172C117.453 109.172 116.652 108.241 116.652 106.379C116.652 105.35 117.03 101.874 117.785 95.9492C118.397 91.1576 118.703 88.2995 118.703 87.375C118.703 86.3203 118.658 85.7214 118.566 85.5781C117.72 85.1484 117.297 84.3737 117.297 83.2539C117.297 82.1602 119.061 81.2096 122.59 80.4023C126.118 79.582 129.139 79.1719 131.652 79.1719C134.595 79.1719 136.939 79.7773 138.684 80.9883C140.428 82.1992 141.301 83.8333 141.301 85.8906C141.301 88.8594 139.699 91.4701 136.496 93.7227C133.293 95.9622 129.4 97.5508 124.816 98.4883C123.137 98.8398 122.18 99.0612 121.945 99.1523ZM123.684 84.4844L122.531 94.7578C126.281 94.1328 129.576 93.026 132.414 91.4375C135.253 89.8359 136.672 88.1237 136.672 86.3008C136.672 84.1263 134.953 83.0391 131.516 83.0391C129.133 83.0391 126.522 83.5208 123.684 84.4844ZM160.891 98.0977C160.018 101.145 158.358 103.716 155.91 105.812C153.475 107.896 151.04 108.938 148.605 108.938C146.678 108.938 145.09 108.234 143.84 106.828C142.59 105.409 141.965 103.671 141.965 101.613C141.965 98.2539 143.111 94.9466 145.402 91.6914C147.694 88.4362 150.474 86.8086 153.742 86.8086C155.969 86.8086 157.772 87.6354 159.152 89.2891C160.533 90.9297 161.223 92.8893 161.223 95.168C161.223 96.1576 161.112 97.1276 160.891 98.0781V98.0977ZM150.734 91.9258C149.823 92.7331 148.931 94.0221 148.059 95.793C147.186 97.5638 146.75 99.3411 146.75 101.125C146.75 102.206 146.945 103.098 147.336 103.801C147.74 104.504 148.267 104.855 148.918 104.855C150.533 104.855 152.212 103.898 153.957 101.984C155.702 100.07 156.574 97.9219 156.574 95.5391C156.574 94.1979 156.288 93.0977 155.715 92.2383C155.155 91.3659 154.367 90.9297 153.352 90.9297C152.388 90.9297 151.522 91.2617 150.754 91.9258H150.734ZM172.941 92.1406C172.824 92.1406 172.453 93.5924 171.828 96.4961C171.216 99.3997 170.91 101.158 170.91 101.77C170.91 102.837 171.021 103.586 171.242 104.016C171.477 104.432 171.854 104.641 172.375 104.641C173.104 104.641 173.801 104.517 174.465 104.27C175.142 104.009 176.027 103.436 177.121 102.551C177.798 101.991 178.371 101.711 178.84 101.711C179.217 101.711 179.517 101.822 179.738 102.043C179.973 102.251 180.09 102.499 180.09 102.785C180.09 103.931 179.165 105.233 177.316 106.691C175.467 108.137 173.514 108.859 171.457 108.859C169.738 108.859 168.423 108.352 167.512 107.336C166.613 106.32 166.164 104.862 166.164 102.961C166.164 101.203 166.822 97.694 168.137 92.4336C167.303 92.5247 166.724 92.5703 166.398 92.5703H165.988C165.389 92.5703 164.777 92.375 164.152 91.9844C163.54 91.5938 163.234 90.9688 163.234 90.1094C163.234 89.0156 163.853 88.4688 165.09 88.4688L169.27 88.3125C169.816 86.737 170.396 84.6732 171.008 82.1211C171.372 80.5326 172.199 79.7383 173.488 79.7383C174.204 79.7383 174.764 79.9596 175.168 80.4023C175.572 80.832 175.773 81.3138 175.773 81.8477C175.773 82.056 175.22 84.0677 174.113 87.8828C178.254 87.5182 180.526 87.3359 180.93 87.3359C181.62 87.3359 182.076 87.4401 182.297 87.6484C182.518 87.8438 182.629 88.2279 182.629 88.8008C182.629 89.9596 181.646 90.6953 179.68 91.0078L172.941 92.1406ZM202.102 98.0977C201.229 101.145 199.569 103.716 197.121 105.812C194.686 107.896 192.251 108.938 189.816 108.938C187.889 108.938 186.301 108.234 185.051 106.828C183.801 105.409 183.176 103.671 183.176 101.613C183.176 98.2539 184.322 94.9466 186.613 91.6914C188.905 88.4362 191.685 86.8086 194.953 86.8086C197.18 86.8086 198.983 87.6354 200.363 89.2891C201.743 90.9297 202.434 92.8893 202.434 95.168C202.434 96.1576 202.323 97.1276 202.102 98.0781V98.0977ZM191.945 91.9258C191.034 92.7331 190.142 94.0221 189.27 95.793C188.397 97.5638 187.961 99.3411 187.961 101.125C187.961 102.206 188.156 103.098 188.547 103.801C188.951 104.504 189.478 104.855 190.129 104.855C191.743 104.855 193.423 103.898 195.168 101.984C196.913 100.07 197.785 97.9219 197.785 95.5391C197.785 94.1979 197.499 93.0977 196.926 92.2383C196.366 91.3659 195.578 90.9297 194.562 90.9297C193.599 90.9297 192.733 91.2617 191.965 91.9258H191.945ZM213.332 74.9336C214.738 74.9336 215.441 75.7018 215.441 77.2383C215.441 77.9414 215.344 78.7031 215.148 79.5234C214.953 80.3307 214.419 82.3424 213.547 85.5586C212.909 87.8893 212.421 90.4349 212.082 93.1953C211.757 95.9427 211.594 98.0911 211.594 99.6406C211.594 101.294 211.717 103.26 211.965 105.539C212.03 106.151 212.062 106.535 212.062 106.691C212.062 107.473 211.776 108.143 211.203 108.703C210.63 109.263 210.005 109.543 209.328 109.543C208.404 109.543 207.753 109.107 207.375 108.234C206.997 107.362 206.809 105.865 206.809 103.742C206.809 99.1719 207.342 93.7878 208.41 87.5898C209.491 81.3919 210.37 77.7331 211.047 76.6133C211.737 75.4935 212.499 74.9336 213.332 74.9336ZM236.008 98.0977C235.135 101.145 233.475 103.716 231.027 105.812C228.592 107.896 226.158 108.938 223.723 108.938C221.796 108.938 220.207 108.234 218.957 106.828C217.707 105.409 217.082 103.671 217.082 101.613C217.082 98.2539 218.228 94.9466 220.52 91.6914C222.811 88.4362 225.591 86.8086 228.859 86.8086C231.086 86.8086 232.889 87.6354 234.27 89.2891C235.65 90.9297 236.34 92.8893 236.34 95.168C236.34 96.1576 236.229 97.1276 236.008 98.0781V98.0977ZM225.852 91.9258C224.94 92.7331 224.048 94.0221 223.176 95.793C222.303 97.5638 221.867 99.3411 221.867 101.125C221.867 102.206 222.062 103.098 222.453 103.801C222.857 104.504 223.384 104.855 224.035 104.855C225.65 104.855 227.329 103.898 229.074 101.984C230.819 100.07 231.691 97.9219 231.691 95.5391C231.691 94.1979 231.405 93.0977 230.832 92.2383C230.272 91.3659 229.484 90.9297 228.469 90.9297C227.505 90.9297 226.639 91.2617 225.871 91.9258H225.852ZM258.215 91.6914H258.234C258.234 91.6914 258.221 91.7044 258.195 91.7305C257.44 92.1471 256.828 92.5117 256.359 92.8242C255.487 93.4102 254.608 94.0417 253.723 94.7188C252.707 95.5 251.945 96.1576 251.438 96.6914C251.008 97.1341 250.793 97.4596 250.793 97.668C250.793 97.9023 251.555 98.8203 253.078 100.422C254.602 102.01 255.806 103.15 256.691 103.84C257.59 104.53 258.475 104.875 259.348 104.875L260.207 104.855C260.52 104.855 260.767 104.953 260.949 105.148C261.145 105.331 261.242 105.611 261.242 105.988C261.242 106.522 260.91 107.141 260.246 107.844C259.582 108.547 258.443 108.898 256.828 108.898C255.878 108.898 254.914 108.553 253.938 107.863C252.961 107.16 251.464 105.585 249.445 103.137C247.831 101.171 246.952 100.188 246.809 100.188C246.717 100.188 246.444 100.422 245.988 100.891C245.533 101.359 245.233 101.717 245.09 101.965V101.984C244.868 103.065 244.758 104.478 244.758 106.223C244.758 107.095 244.497 107.805 243.977 108.352C243.469 108.898 242.844 109.172 242.102 109.172C241.333 109.172 240.734 108.951 240.305 108.508C239.875 108.078 239.66 107.642 239.66 107.199C239.66 106.73 239.823 105.702 240.148 104.113C240.773 101.027 241.301 96.9323 241.73 91.8281C242.147 87.7526 242.512 84.5755 242.824 82.2969C243.137 80.0052 243.417 78.5078 243.664 77.8047C243.911 77.0885 244.296 76.5221 244.816 76.1055C245.337 75.6758 245.897 75.4609 246.496 75.4609C247.069 75.4609 247.525 75.7018 247.863 76.1836C248.215 76.6523 248.391 77.2253 248.391 77.9023C248.391 78.7487 247.844 82.056 246.75 87.8242L246.281 90.3828H246.301C245.728 94.1458 245.435 96.3203 245.422 96.9062L251.418 91.4766C254.478 88.5208 256.724 87.043 258.156 87.043C259.536 87.043 260.227 87.5964 260.227 88.7031C260.227 90.0833 259.556 91.0794 258.215 91.6914Z" fill="white"/>
<path d="M44.4389 17.8229L48.7564 15.286C48.9718 15.1595 49.2431 15.3148 49.2431 15.5646V15.5646V23.1866V31.3731L49.1589 32.0068C48.8182 34.5692 47.9649 37.0368 46.6498 39.2622V39.2622C45.9784 40.3985 45.1918 41.4627 44.3026 42.438L42.0368 44.9233L41.0766 45.7358C37.7278 48.5693 33.9963 50.9613 30.0263 52.8275V52.8275L24.021 56.2151L16.8147 60.1672L12.0105 62.9901L4.80421 66.3777L0.657984 68.0483C0.620011 68.0636 0.585221 68.0858 0.555393 68.1139V68.1139C0.344996 68.3117 0 68.1625 0 67.8737V61.8609V56.4375C0 54.044 0.353713 51.6636 1.04968 49.3735L1.17917 48.9474C1.98712 46.2888 3.29212 43.8076 5.02495 41.6354V41.6354C5.67766 40.8172 6.388 40.0467 7.15056 39.3298L7.91854 38.6078C9.84023 36.8011 11.9511 35.2068 14.2145 33.8526L17.4153 31.9377L24.6216 28.5502L32.4284 24.0334L40.2352 20.0813L44.4389 17.8229Z" fill="#49FFB6"/>
<path d="M1.21167 71.0694C1.60213 70.58 2.07258 70.1601 2.6031 69.8276L3.14249 69.4895C4.62072 68.563 6.33002 68.0716 8.07461 68.0716H8.14814C9.11603 68.0716 10.0783 68.2188 11.0019 68.5083L11.6407 68.7085C12.6843 69.0355 13.6857 69.4845 14.6242 70.0459L19.8174 73.1529L32.4284 80.4926L34.9387 82.1784C36.0658 82.9352 37.1291 83.7828 38.1182 84.7127V84.7127C39.1275 85.6616 40.0559 86.6929 40.8939 87.7959L41.5848 88.7051C42.2854 89.6273 42.9106 90.6043 43.4543 91.6268L43.672 92.0361C44.1821 92.9952 44.598 94.0015 44.9138 95.0408L45.3327 96.4193C45.5365 97.0896 45.64 97.7863 45.64 98.4869V114.153C45.64 114.448 45.2872 114.601 45.072 114.399V114.399C45.0504 114.378 45.0262 114.361 45 114.347L14.4126 97.9949L9.25541 94.2652C7.49807 92.9943 5.93202 91.478 4.60506 89.7626L4.40573 89.5049C2.68698 87.283 1.42971 84.74 0.707831 82.0253L0.473346 81.1435C0.159118 79.9618 0 78.7442 0 77.5214V74.5313C0 73.2734 0.42722 72.0528 1.21167 71.0694V71.0694Z" fill="#4BCCCC"/>
<path d="M86.5377 71.2132C86.1776 70.6733 85.7282 70.1986 85.2089 69.8093L84.8024 69.5046C83.6199 68.6182 82.1819 68.1391 80.7041 68.1391V68.1391C79.8852 68.1391 79.0729 68.2863 78.3061 68.5737L77.7225 68.7924C76.8797 69.1083 76.0821 69.5335 75.3502 70.0572L70.9293 73.2204L60.3843 80.5601L58.3703 82.1775C57.3714 82.9798 56.4413 83.8642 55.5899 84.8216V84.8216C54.7703 85.743 54.0263 86.7289 53.3651 87.7698L52.7724 88.7028C52.1569 89.6717 51.6137 90.6847 51.1473 91.7335L51.0119 92.038C50.5657 93.0413 50.2055 94.0806 49.9351 95.1448L49.5329 96.7274C49.4029 97.239 49.3372 97.7648 49.3372 98.2926V114.282C49.3372 114.533 49.6474 114.651 49.8142 114.464V114.464C49.8308 114.445 49.85 114.429 49.8711 114.415L73.0051 99.6245C74.632 98.5844 76.1817 97.4283 77.6421 96.1652L79.4989 94.5593C81.1422 93.1379 82.5754 91.4904 83.7555 89.666V89.666C85.2357 87.3776 86.2964 84.8438 86.888 82.1834L87.1087 81.1908C87.3688 80.021 87.5 78.8263 87.5 77.628V74.3899C87.5 73.2592 87.1652 72.1539 86.5377 71.2132V71.2132Z" fill="#4C98E2"/>
<path d="M61.2534 26.2919L72.6634 32.5024L78.0682 35.8899L82.2718 39.842L84.6739 43.7942L86.4755 48.8755V62.4256V68.0715L72.6634 59.6027L67.8592 56.2151L64.256 51.6984L61.8539 46.6171L61.2534 42.1004V26.2919Z" fill="#4F53FF"/>
<rect x="101" y="15" width="1" height="98" fill="white"/>
</svg>
